<svg height="22" viewBox="0 0 24 22" width="24" xmlns="http://www.w3.org/2000/svg"><path d="m274.716599 32.9693157c.209303.2093027.326512.4967449.326512.7897686s-.117209.5832567-.326512.7897687c-.206512.2093026-.493954.3265121-.789768.3265121-.293024 0-.580466-.1172095-.786699-.3265121-.209303-.206512-.329582-.4939543-.329582-.7897687 0-.2930237.120279-.5804659.329582-.7897686.206233-.2065119.493675-.3265121.786699-.3265121.295814 0 .583256.1200002.789768.3265121m1.34763-1.6216768c.035721.5383264-.371721 1.0035364-.910048 1.0389783-.021767.0013953-.043535.0022325-.065302.0022325-.51014 0-.939629-.3960006-.973676-.9125595-.104651-1.5828861-1.139164-1.8427004-1.345676-1.8787004-.53442-.0731164-.900002-.564559-.826885-1.0989784.073395-.5346985.574047-.9055828 1.108467-.8338617.966699.1325583 2.840934 1.0727457 3.01312 3.6828892m.272652 3.2321908c-3.61675 4.0571224-6.911173 7.2212201-8.336943 8.5535012-1.424932-1.3311648-4.716565-4.4921928-8.336942-8.5535012-1.461212-1.6389791-1.82484-3.6379589-.997397-5.4842872.767164-1.7123747 2.411166-2.862981 4.09061-2.862981 3.330424 0 4.084193 2.4909804 4.161216 2.7828878.123349.4922799.565396.8450246 1.073862.8450246h.009767c.507071 0 .952188-.3524657 1.081118-.8436292.074512-.2843725.825211-2.7812135 4.161774-2.7812135 1.679165 0 3.323168 1.148932 4.090611 2.8613066.827164 1.8463284.463814 3.8439128-.997676 5.4828919m3.034609-6.3974049c-1.138327-2.5406549-3.543633-4.1824248-6.127544-4.1824248-2.582236 0-4.257216 1.1358156-5.244008 2.3662361-.986792-1.2304205-2.661771-2.3662361-5.243729-2.3662361-2.58391 0-4.989216 1.6417699-6.127823 4.1824248-1.18549 2.6455854-.673954 5.5922875 1.368281 7.8831746 4.891822 5.4876361 9.214898 9.3781535 9.257875 9.4166652.212093.1903259.478884.2852098.745396.2852098.266791 0 .533303-.0948839.745397-.2852098.042976-.0385117 4.366053-3.9290291 9.257874-9.4166652 2.042236-2.2908871 2.55405-5.2375892 1.368281-7.8831746" fill="#bfc5d1" fill-rule="evenodd" transform="translate(-256 -24)"/></svg>