<svg height="15" viewBox="0 0 24 15" width="24" xmlns="http://www.w3.org/2000/svg"><path d="m13.5495568 7.4912745c.1956511.19304243.3052157.46173662.3052157.73825686 0 .27391156-.1095646.54260575-.3052157.73825686-.1930424.19304243-.4617366.30521573-.7356482.30521573-.2765202 0-.5452144-.1121733-.7382568-.30521573-.1956511-.19565111-.3052158-.4643453-.3052158-.73825686 0-.27652024.1095647-.54521443.3052158-.73825686.1930424-.19565111.4617366-.30521573.7382568-.30521573.2739116 0 .5426058.10956462.7356482.30521573m.1025212 3.7648491c-.5861707.4426933-1.3092973.6297357-2.0350324.5274754-.728083-.1030429-1.3724274-.4849539-1.81485974-1.0755594-.91356025-1.22060203-.66886593-2.95980997.54547534-3.87754411.5866924-.44269325 1.3103407-.63025745 2.0363367-.52721453.7278221.10330379 1.3721665.48495389 1.8138162 1.07503764.9135603 1.22112379.668866 2.9605926-.5457361 3.877805m-1.0484291-6.50239944c-1.1423416-.16199912-2.2779007.13226016-3.19954784.82773464 0 0 0 .00026086-.00026086.00026086-1.89964185 1.43581829-2.28311803 4.15589046-.85460405 6.06440184.6936484.9263428 1.70529505 1.5255569 2.84868015 1.6872952.2042598.0286955.4085195.0430432.6112141.0430432.9297341 0 1.8305118-.3005201 2.5862468-.8715605 1.9001636-1.4347748 2.2841615-4.15510782.8553867-6.06440179-.6931267-.92582106-1.7042517-1.52503519-2.847115-1.68677345m-.6036489 9.24621064c-5.03814653 0-8.4683018-3.5368504-9.64299107-4.95858176 1.16921104-1.42251401 4.58240988-4.95440786 9.64299107-4.95440786 5.0371031 0 8.4664757 3.53502427 9.6414259 4.9564948-1.1762545 1.42277492-4.6056272 4.95649482-9.6414259 4.95649482m11.823327-5.53744818c-.1768686-.26399857-4.4172803-6.46248662-11.823327-6.46248662-7.40604671 0-11.64645844 6.19848805-11.82332705 6.46248662-.23556393.35138939-.23556393.81051733 0 1.16190673.17686861.26399856 4.41728034 6.46248665 11.82332705 6.46248665 7.4060467 0 11.6464584-6.19848809 11.823327-6.46248665.235564-.3513894.235564-.81051734 0-1.16190673" fill="#bfc5d1" fill-rule="evenodd" transform="translate(0 -2)"/></svg>