<svg height="16" viewBox="0 0 16 16" width="16" xmlns="http://www.w3.org/2000/svg"><path d="m14.5871482 22.8493303c-.7994747.7986052-.8307789 2.3982503-.8290398 2.7086837.0022609.3808679.3104334.7027795.6914752.7027795h.0226086c.3580854 0 1.8951221-.0586084 2.6768578-.8391267.4933891-.4930413.5970408-.9959956.5970408-1.326429 0-.4631284-.1987817-.9194742-.5599975-1.2803422-.8803439-.8793004-1.9643392-.5996495-2.5989451.0344347m9.7931743-7.2232726c.2104338.2104339.3304333.5026065.3304333.7999965s-.1199995.5878235-.3304333.7982574c-.2104339.2104338-.5026065.3321724-.7999965.3321724s-.5878235-.1217386-.7982573-.3321724c-.2104339-.2104339-.3321725-.5008674-.3321725-.7982574s.1217386-.5895626.3321725-.7999965c.2086947-.2104338.5008673-.3304333.7982573-.3304333s.5895626.1199995.7999965.3304333m3.5758103-2.9551174c-.0286955-.3396507-.2994769-.608519-.6394754-.6347798-4.3919807-.3417376-7.555445 1.7838182-9.5098712 4.4685021-1.0801691-.3539115-2.2398162-.2276512-3.2973768.3681723-1.0186042.5737366-1.8862525 1.5405149-2.4429457 2.7222488-.1276516.2706075-.0678258.5925192.1485211.7993009.2161729.2067817.5405193.2521728.8050399.1125212 1.1137342-.5873018 2.3678157-.4766935 3.1208558.2753031l3.0664213 3.063117c.0055652.005913.0093913.0126956.0151304.0186086.7523445.7514749.8631266 2.0034694.275477 3.1152906-.1396516.2645206-.0947822.588867.1118256.8052139.1344342.1408689.3173899.2154773.503476.2154773.0999996 0 .2010426-.0215651.2958248-.0660867 1.1827774-.5561714 2.1505992-1.4229502 2.7250315-2.440511.5999974-1.0629518.7248664-2.2292075.3626071-3.3142462.7886922-.5660845 1.494776-1.2041687 2.0878169-1.8963395 1.8208615-2.125208 2.6187711-4.6860663 2.3716417-7.6117926" fill="#fff" fill-rule="evenodd" transform="translate(-12 -12)"/></svg>