<svg height="24" viewBox="0 0 23 24" width="23" xmlns="http://www.w3.org/2000/svg"><path d="m6.3927033 15.2967033h9.3681758c.5825934 0 1.0549451-.4723517 1.0549451-1.0549451s-.4723517-1.054945-1.0549451-1.054945h-9.3681758c-.58259341 0-1.05494506.4723516-1.05494506 1.054945s.47235165 1.0549451 1.05494506 1.0549451m3.8146813-11.34065934h1.7388132c.5825934 0 1.0549451-.47235165 1.0549451-1.05494506s-.4723517-1.05494505-1.0549451-1.05494505h-1.7388132c-.58259339 0-1.05494504.47235164-1.05494504 1.05494505s.47235165 1.05494506 1.05494504 1.05494506m10.8915165-2.10989011h-2.2019341c-.5825934 0-1.054945.47235164-1.054945 1.05494505s.4723516 1.05494506 1.054945 1.05494506h1.146989v17.93406594h-17.93406589v-17.93406594h1.14672527c.58259341 0 1.05494506-.47235165 1.05494506-1.05494506s-.47235165-1.05494505-1.05494506-1.05494505h-2.20167033c-.5825934 0-1.05494505.56782417-1.05494505 1.15041758v19.94848347c0 .5825935.47235165 1.0549451 1.05494505 1.0549451h20.04395605c.5825934 0 1.0549451-.4723516 1.0549451-1.0549451v-19.94848347c0-.58259341-.4723517-1.15041758-1.0549451-1.15041758m-14.7061978 8.70329665h9.3681758c.5825934 0 1.0549451-.4723516 1.0549451-1.05494501 0-.5825934-.4723517-1.05494505-1.0549451-1.05494505h-9.3681758c-.58259341 0-1.05494506.47235165-1.05494506 1.05494505 0 .58259341.47235165 1.05494501 1.05494506 1.05494501m8.904-4.53890105c.7281758 0 1.3186813-.59050549 1.3186813-1.31868132v-3.37318681c0-.72817582-.5905055-1.31868132-1.3186813-1.31868132s-1.3186813.5905055-1.3186813 1.31868132v3.37318681c0 .72817583.5905055 1.31868132 1.3186813 1.31868132m-9.75824176-1.31868132v-3.37318681c0-.72817582.59050549-1.31868132 1.31868132-1.31868132.72817582 0 1.31868132.5905055 1.31868132 1.31868132v3.37318681c0 .72817583-.5905055 1.31868132-1.31868132 1.31868132-.72817583 0-1.31868132-.59050549-1.31868132-1.31868132" fill="#bfc5d1" fill-rule="evenodd" transform=""/></svg>