<svg height="23" viewBox="0 0 24 23" width="24" xmlns="http://www.w3.org/2000/svg"><path d="m30.6347826 49.3478261c1.1506957-1.2177391 3.9031304-2.574 6.2032174-3.3756522l2.486087 2.1143478c.3897391.3315653.9623478.3315653 1.3520869 0l2.486087-2.1143478c2.3000869.8016522 5.0525217 2.1579131 6.2032174 3.3756522zm12.6172174-5.5458261c-.3433043-.110087-.7186957-.0344348-.9931304.1990435l-2.2588696 1.9207826-2.2586087-1.9207826c-.2744348-.2334783-.6498261-.3091305-.9931304-.1990435-1.4608696.465913-8.7482609 2.973913-8.7482609 6.5893043 0 .5762609.4672174 1.0434783 1.0434783 1.0434783h21.9130434c.5762609 0 1.0434783-.4672174 1.0434783-1.0434783 0-3.6153913-7.2873913-6.1233913-8.748-6.5893043zm-3.252-12.7150435c2.7224348 0 4.9372174 2.2286087 4.9372174 4.9682609 0 2.7401739-2.2147826 4.9693043-4.9372174 4.9693043-2.7221739 0-4.9369565-2.2291304-4.9369565-4.9693043 0-2.7396522 2.2147826-4.9682609 4.9369565-4.9682609zm0 12.0245218c3.8731304 0 7.0241739-3.1653913 7.0241739-7.0562609 0-3.8903478-3.1510435-7.0552174-7.0241739-7.0552174-3.8728696 0-7.023913 3.1648696-7.023913 7.0552174 0 3.8908696 3.1510434 7.0562609 7.023913 7.0562609z" fill="#bfc5d1" fill-rule="evenodd" transform="translate(-28 -29)"/></svg>